<?xml version="1.0" encoding="utf-8"?>
<!-- Generator: Adobe Illustrator 25.2.3, SVG Export Plug-In . SVG Version: 6.00 Build 0)  -->
<svg version="1.1" id="Capa_1" xmlns="http://www.w3.org/2000/svg" xmlns:xlink="http://www.w3.org/1999/xlink" x="0px" y="0px"
	 viewBox="0 0 103.39 65.82" style="enable-background:new 0 0 103.39 65.82;" xml:space="preserve">
<style type="text/css">
	.st0{fill:#EDEDED;}
</style>
<g id="XMLID_2306_">
	<g id="XMLID_2312_">
		<path class="st0" d="M38.01,63.33c2.79-0.58,5.21-1.65,7.25-3.22c1.81-1.36,3.33-3.05,4.55-5.05c1.9-3.02,2.86-6.43,2.86-10.24
			c0-3.69-0.84-6.82-2.5-9.41c-1.67-2.58-4.14-4.47-7.42-5.67c2.16-1.1,3.79-2.32,4.9-3.66c1.98-2.38,2.97-5.53,2.97-9.45
			c0-3.8-0.99-7.07-2.95-9.8C44.41,2.4,38.86,0.12,31.03,0H0v64.2h28.93C32.19,64.2,35.22,63.91,38.01,63.33z M12.81,11.15h13.97
			c3.08,0,5.6,0.33,7.59,1c2.3,0.96,3.45,2.93,3.45,5.92c0,2.7-0.87,4.58-2.61,5.64c-1.74,1.06-4,1.59-6.79,1.59h-15.6V11.15z
			 M12.81,53.05V35.94h15.8c2.76,0.03,4.9,0.39,6.42,1.09c2.73,1.25,4.09,3.54,4.09,6.88c0,3.95-1.41,6.62-4.22,8.02
			c-1.55,0.76-3.72,1.13-6.5,1.13H12.81z"/>
	</g>
	<g id="XMLID_2307_">
		<g id="XMLID_2309_">
			<path class="st0" d="M63.54,59.97c4.83,3.9,10.41,5.84,16.72,5.84c7.66,0,13.61-2.31,17.86-6.93c2.74-2.91,4.27-5.77,4.61-8.58
				H90.05c-0.74,1.39-1.59,2.48-2.56,3.26c-1.77,1.45-4.07,2.18-6.89,2.18c-2.67,0-4.95-0.6-6.84-1.79
				c-3.12-1.92-4.77-5.26-4.97-10.02h34.58c0.06-4.1-0.08-7.24-0.41-9.42c-0.58-3.72-1.84-7-3.78-9.81
				c-2.15-3.2-4.89-5.54-8.21-7.02c-3.31-1.48-7.03-2.22-11.16-2.22c-6.95,0-12.61,2.19-16.98,6.58
				c-4.36,4.38-6.54,10.69-6.54,18.92C56.29,49.74,58.71,56.08,63.54,59.97z M72.41,28.41c1.76-1.81,4.22-2.71,7.41-2.71
				c2.93,0,5.39,0.85,7.37,2.56c1.98,1.71,3.08,4.21,3.31,7.5H69.1C69.55,32.67,70.65,30.22,72.41,28.41z"/>
		</g>
		<g id="XMLID_2308_">
			<rect x="65.05" y="3.69" class="st0" width="27.9" height="6.48"/>
		</g>
	</g>
</g>
</svg>
