<?xml version="1.0" encoding="utf-8"?>
<!-- Generator: Adobe Illustrator 25.2.3, SVG Export Plug-In . SVG Version: 6.00 Build 0)  -->
<svg version="1.1" id="Capa_1" xmlns="http://www.w3.org/2000/svg" xmlns:xlink="http://www.w3.org/1999/xlink" x="0px" y="0px"
	 viewBox="0 0 65.8 65.8" style="enable-background:new 0 0 65.8 65.8;" xml:space="preserve">
<style type="text/css">
	.st0{fill:#EDEDED;}
</style>
<g id="XMLID_2393_">
	<g id="XMLID_2398_">
		<path class="st0" d="M32.9,5.9c8.8,0,9.8,0,13.3,0.2c3.2,0.1,5,0.7,6.1,1.1c1.5,0.6,2.6,1.3,3.8,2.5c1.2,1.2,1.9,2.2,2.5,3.8
			c0.5,1.2,1,2.9,1.1,6.1c0.2,3.5,0.2,4.5,0.2,13.3c0,8.8,0,9.8-0.2,13.3c-0.1,3.2-0.7,5-1.1,6.1c-0.6,1.5-1.3,2.6-2.5,3.8
			c-1.2,1.2-2.2,1.9-3.8,2.5c-1.2,0.5-2.9,1-6.1,1.1c-3.5,0.2-4.5,0.2-13.3,0.2c-8.8,0-9.8,0-13.3-0.2c-3.2-0.1-5-0.7-6.1-1.1
			c-1.5-0.6-2.6-1.3-3.8-2.5c-1.2-1.2-1.9-2.2-2.5-3.8c-0.5-1.2-1-2.9-1.1-6.1C6,42.7,5.9,41.7,5.9,32.9c0-8.8,0-9.8,0.2-13.3
			c0.1-3.2,0.7-5,1.1-6.1c0.6-1.5,1.3-2.6,2.5-3.8c1.2-1.2,2.2-1.9,3.8-2.5c1.2-0.5,2.9-1,6.1-1.1C23.1,6,24.1,5.9,32.9,5.9 M32.9,0
			C24,0,22.9,0,19.3,0.2c-3.5,0.2-5.9,0.7-8,1.5c-2.2,0.8-4,2-5.8,3.8c-1.8,1.8-3,3.7-3.8,5.8c-0.8,2.1-1.4,4.5-1.5,8
			C0,22.9,0,24,0,32.9C0,41.8,0,43,0.2,46.5c0.2,3.5,0.7,5.9,1.5,8c0.8,2.2,2,4,3.8,5.8c1.8,1.8,3.7,3,5.8,3.8
			c2.1,0.8,4.5,1.4,8,1.5c3.5,0.2,4.6,0.2,13.6,0.2c8.9,0,10.1,0,13.6-0.2c3.5-0.2,5.9-0.7,8-1.5c2.2-0.8,4-2,5.8-3.8
			c1.8-1.8,3-3.7,3.8-5.8c0.8-2.1,1.4-4.5,1.5-8c0.2-3.5,0.2-4.6,0.2-13.6c0-8.9,0-10.1-0.2-13.6c-0.2-3.5-0.7-5.9-1.5-8
			c-0.8-2.2-2-4-3.8-5.8c-1.8-1.8-3.7-3-5.8-3.8c-2.1-0.8-4.5-1.4-8-1.5C43,0,41.8,0,32.9,0"/>
	</g>
	<g id="XMLID_2395_">
		<path class="st0" d="M32.9,16C23.6,16,16,23.6,16,32.9s7.6,16.9,16.9,16.9c9.3,0,16.9-7.6,16.9-16.9S42.2,16,32.9,16 M32.9,43.9
			c-6.1,0-11-4.9-11-11c0-6.1,4.9-11,11-11c6.1,0,11,4.9,11,11C43.9,39,39,43.9,32.9,43.9"/>
	</g>
	<g id="XMLID_2394_">
		<path class="st0" d="M54.4,15.3c0,2.2-1.8,3.9-3.9,3.9c-2.2,0-3.9-1.8-3.9-3.9s1.8-3.9,3.9-3.9C52.7,11.4,54.4,13.2,54.4,15.3"/>
	</g>
</g>
</svg>
