<?xml version="1.0" encoding="utf-8"?>
<!-- Generator: Adobe Illustrator 25.3.1, SVG Export Plug-In . SVG Version: 6.00 Build 0)  -->
<svg version="1.1" id="Capa_1" xmlns="http://www.w3.org/2000/svg" xmlns:xlink="http://www.w3.org/1999/xlink" x="0px" y="0px"
	 viewBox="0 0 65.8 65.8" style="enable-background:new 0 0 65.8 65.8;" xml:space="preserve">
<style type="text/css">
	.st0{fill:#EDEDED;}
</style>
<g id="XMLID_20_">
	<g id="XMLID_22_">
		<g id="XMLID_24_">
			<rect x="1.3" y="21.9" class="st0" width="13.6" height="43.9"/>
		</g>
		<g id="XMLID_23_">
			<path class="st0" d="M8,16.2c4.4,0,8-3.6,8-8.1S12.5,0,8,0C3.6,0,0,3.6,0,8.1S3.6,16.2,8,16.2z"/>
		</g>
	</g>
	<g id="XMLID_21_">
		<path class="st0" d="M36.6,42.8c0-6.2,2.8-9.8,8.3-9.8c5,0,7.4,3.5,7.4,9.8c0,6.3,0,23,0,23h13.5c0,0,0-16,0-27.8
			c0-11.8-6.7-17.4-16-17.4c-9.3,0-13.2,7.3-13.2,7.3v-5.9h-13v43.9h13C36.6,65.8,36.6,49.5,36.6,42.8z"/>
	</g>
</g>
</svg>
