<?xml version="1.0" encoding="utf-8"?>
<!-- Generator: Adobe Illustrator 25.2.3, SVG Export Plug-In . SVG Version: 6.00 Build 0)  -->
<svg version="1.1" id="Capa_1" xmlns="http://www.w3.org/2000/svg" xmlns:xlink="http://www.w3.org/1999/xlink" x="0px" y="0px"
	 viewBox="0 0 800 800" style="enable-background:new 0 0 800 800;" xml:space="preserve">
<style type="text/css">
	.st0{fill:#EDEDED;}
	.st1{fill-rule:evenodd;clip-rule:evenodd;fill:#53BCA6;}
</style>
<g>
	<g>
		<path class="st0" d="M694,741.2c-15.4,0-30.7,0-47.2,0c0,16,0,31.2,0,47c-8.1,0-15.2,0-23.4,0c0-7.1,0-14.5,0-22.5
			c-8.4,0-15.7,0-23.8,0c0,7.2,0,14.3,0,22.2c-31.7,0-62.6,0-94.7,0c0-14.9,0-30.2,0-46.5c-8.4,0-15.7,0-23.8,0c0-8.2,0-15.3,0-23.4
			c-23.8,0-46.9,0-71,0c0-8.4,0-15.7,0-23.8c-7.5,0-13.9,0-21.1,0c0-8,0-15.4,0-23.3c7.2,0,14.6,0,22.6,0c0,7.4,0,14.5,0,22.3
			c15.2,0,29.8,0,45,0c0-15.1,0-30.3,0-46.3c-7.3,0-14.4,0-22.6,0c0-8,0-15.4,0-24.2c-16,0-31,0-45.9,0l0.3,0.3c0-7.7,0-15.5,0-23.1
			c-16.6,0-31.7,0-47.6,0c0,8.2,0,15.7,0,23.1l0.3-0.3c-8,0-16,0-23.9,0l0.3,0.3c0-7.8,0-15.5,0-24.3c-8.8,0-16.1,0-24.1,0
			c0-7.5,0-14,0-20.6c-15.9,0-31.1,0-47.1,0c0,7.5,0,14.3,0,21.2l0.3-0.3c-8,0-15.9,0-23.9,0l0.3,0.3c0-6.9,0-13.7,0-21.2
			c-15.3,0-29.9,0-45.2,0c0,6.7,0,13.2,0,20.3c-8.7,0-16.7,0-25.8,0c0-6.6,0-13.3,0-20.5c-7.5,0-13.9,0-21.5,0c0,6.6,0,13.3,0,20.6
			c-39.9,0-78.8,0-118.2,0c0-7.4,0-14.5,0-22.7c38.2,0,76.4,0,115.7,0c0-16.3,0-31.5,0-47.5c16,0,31,0,46.7,0c0-7.4,0-14.1,0-21.5
			c-15,0-30,0-46.1,0c0-8,0-15.4,0-23.4c-15.6,0-30.2,0-45.5,0c0,7.2,0,14.3,0,22.2c-8.7,0-16.7,0-25.8,0c0-7.1,0-14.5,0-22.5
			c-15.4,0-29.7,0-44.8,0c0-16.6,0-32.5,0-49c23,0,46.1,0,69.9,0c0,7.3,0,14.4,0,22.3c7.4,0,14.1,0,21.8,0c0-15.1,0-30.4,0-46.3
			c16,0,31,0,46.7,0c0-7.4,0-14.1,0-21.8c-15.2,0-30.4,0-46.1,0c0-8.2,0-15.3,0-23.5c7.3,0,14.7,0,22.6,0c0-16.3,0-31.5,0-47.2
			c-6.8,0-13.3,0-20.8,0c0,7.4,0,14.7,0,22.6c-16.7,0-32.3,0-48.8,0c0-14.9,0-30.2,0-46.5c7.1,0,14.4,0,22.5,0c0-16.1,0-31.1,0-47.2
			c15.9,0,31.1,0,47,0c0-8.4,0-15.7,0-23.8c-7.3,0-14.4,0-22.2,0c0-8,0-15.4,0-23.4c7.9,0,15.8,0,24.6,0c0,7.3,0,14.5,0,22.3
			c7.4,0,14,0,21.8,0c0-7.2,0-14.6,0-22.7c16,0,31,0,47.1,0c0-39.6,0-78.5,0-118c8.4,0,15.7,0,23.8,0c0,15.3,0,30.3,0,46.4
			c8,0,15.4,0,23.8,0c0,8.4,0,15.8,0,23.8c8.2,0,15.3,0,23.4,0c0,8,0,15.4,0,23.3c8.2,0,15.3,0,23.2,0c0-14.3,0-28.9,0-44.5
			c-7.1,0-14.4,0-22.5,0c0-16.1,0-31.1,0-47.1c-8,0-15.4,0-23.8,0c0-8.4,0-15.8,0-23.8c-8.1,0-15.3,0-23.4,0c0-8,0-15.4,0-23.8
			c-8.4,0-15.7,0-23.6,0c0-8.2,0-15.3,0-23.1c15.1,0,30.3,0,46.6,0c0,6.6,0,13.3,0,20.5c8.2,0,15.3,0,23.4,0c0-6.6,0-13.3,0-20.6
			c8.4,0,15.7,0,23.8,0c0,14.7,0,29,0,44.1c8,0,15.4,0,23.8,0c0-14.6,0-29.2,0-44.2c16.1,0,31,0,47.1,0c0,14.6,0,29.2,0,44.3
			c23.3,0,45.5,0,68.8,0c0-14.3,0-28.9,0-44.1c9.1,0,17,0,25.8,0c0,6.6,0,13,0,20.3c7.4,0,14.1,0,21.8,0c0-6.5,0-13.2,0-20.4
			c8.8,0,16.6,0,25.1,0c0,7.2,0,14.5,0,22.9c-7.2,0-14.5,0-22.4,0c0,7.5,0,14,0,21.5c15.1,0,30.3,0,46.6,0c0,8.4,0,15.8,0,23.6
			c7.5,0,14,0,21.5,0c0-7.3,0-14.6,0-22.6c16.3,0,31.5,0,47.2,0c0,8.1,0,15.9,0,24.7c-6.6,0-13.4,0-21.1,0c0,8.4,0,15.8,0,23.8
			c-8.2,0-15.3,0-23.1,0c0,7.4,0,14.1,0,21.5c14.4,0,28.7,0,44.1,0c0,23.8,0,47,0,71.2c39.9,0,78.8,0,118.4,0c0,8.2,0,15.3,0,23.5
			c8,0,15.4,0,23.9,0c0,8.8,0,16.5,0,24.3l0.3-0.3c-7.5,0-15,0-23.5,0c0,8,0,15.4,0,23.3c-8.3,0-15.7,0-23.6,0c0-15.3,0-30.3,0-46
			c-23.7,0-46.7,0-70.8,0c0,7,0,14.3,0,23.1c-8.7,0-16.5,0-24.2,0c0-7.7,0-15.4,0-23.2c-7.7,0-14.4,0-20.9,0c0,8,0,15.3,0,22.9
			c7.5,0,14.3,0,21.2,0c0,23.3,0,46.6,0,71.3c8.1,0,15.9,0,23.6,0l-0.3-0.3c0,7.8,0,15.5,0,24c8.9,0,16.4,0,23.9,0l-0.3-0.3
			c0,7.8,0,15.5,0,24c16.8,0,32.2,0,47.6,0l-0.3-0.3c0,14.7,0,29.5,0,44.9c8.1,0,15.4,0,23.5,0c0-6.6,0-13.1,0-20.3
			c15.9,0,31.1,0,47.4,0c0,6.6,0,13.3,0,20.7c8.2,0,15.3,0,23.1,0c0,8.7,0,16.7,0,25.8c-7.2,0-14.6,0-22.6,0c0,8.2,0,15.3,0,23.1
			c-8,0-15.4,0-23.8,0c0-7.3,0-14.7,0-22.5c-8.2,0-15.3,0-23.4,0c0,7.3,0,14.7,0,22.6c-8.4,0-15.7,0-23.8,0c0-15.4,0-30.4,0-46.4
			c-8,0-15.4,0-23.4,0c0-8.2,0-15.3,0-23.2c-8,0-15.4,0-23.8,0c0,7,0,14.4,0,22.3c-8.1,0-15.3,0-23.4,0c0-7.1,0-14.4,0-23
			c-8.8,0-16.5,0-24.3,0c0-15.6,0-31.3,0-46.8c-7.9,0-14.5,0-21.9,0c0,7.9,0,15,0,22.3c-8.7,0-16.7,0-24.5,0c0-8,0-15.3,0-23.4
			c7.9,0,15,0,22.2,0c0-8.1,0-15.4,0-22.5c-15.2,0-29.8,0-44.1,0c0,23.7,0,46.6,0,70.5c7.9,0,15.2,0,23.6,0c0,7.8,0,14.5,0,20.9
			c7.5,0,14,0,21.5,0c0-7.2,0-13.9,0-21.3c8.6,0,16.1,0,23.6,0c0,7.5,0,15,0,23.6c-7.4,0-14.1,0-21.3,0c0,15.4,0,29.7,0,44.8
			c22.3,0,44.7,0,68.2,0c0-7.2,0-14.5,0-22.4c8.2,0,15.3,0,23.4,0c0,15,0,30.3,0,46.6c16.3,0,31.5,0,47.4,0c0,8.1,0,15.3,0,23.1
			c8,0,15.4,0,23.8,0c0-7.1,0-14.5,0-22.4c8.1,0,15.3,0,23.4,0c0,22.9,0,46.1,0,70.3c8.3,0,15.7,0,23.6,0c0,8.8,0,16.6,0,25.4
			c-7.1,0-14.5,0-23.3,0c0,8.1,0,15.2,0,22.3l0.3-0.3c-8,0.1-16,0.2-23.9,0.3c0-22.9,0-45.8,0-69.7c-8.5,0-15.9,0-23.9,0
			c0-8.2,0-15.3,0-22.5c-16,0-31.2,0-47.4,0c0,8,0,15.4,0,22.4c-8.2,0-15.3,0-23.4,0c0-7.9,0-15.3,0-23.3c-16.1,0-31,0-47.1,0
			c0-8.1,0-15.4,0-22.8c-7.8,0-14.4,0-21.1,0c0,15.1,0,29.4,0,44.8c15,0,29.6,0,45.2,0c0,8.4,0,15.8,0,23.8c8.2,0,15.3,0,23.4,0
			c0,8.1,0,15.4,0,22.7c16.3,0,31.5,0,47.4,0c0-7.9,0-15,0-22.3c8.1,0,15.4,0,23.5,0c0,16,0,31.4,0,46.8c-7.7,0-15.4,0-23.1,0
			c0,8.4,0,15.7,0,23.4c8.2,0,15.6,0,23.1,0c0,7.8,0,15.5,0,24.3c-8.8,0-16.1,0-23.3,0c0,8.2,0,15.3,0,23.4c7.9,0,15.2,0,23,0
			c0,8.6,0,16.1,0,23.6l0.3-0.3c-7.5,0-15,0-24,0c0,16.4,0,32,0,47.6L694,741.2z M364.8,222.3c0,7.7,0,15.4,0,24.1
			c8.5,0,15.9,0,23.3,0c0,7.9,0,15.7,0,23.6l0.3-0.3c-15.6,0-31.2,0-47.1,0c0,16.5,0,31.5,0,46.8c2.3,0.4-24.4,26.9-24.9,24
			c-7.6,0-14.7,0-22.1,0c0-8,0-15.3,0-23.7c7.9,0,15.3,0,22.3,0c0-16.3,0-31.5,0-46.4c-7.9,0-15,0-23.1,0c0,7.9,0,15.2,0,22.9
			c-8.5,0-16,0-23.5,0l0.3,0.3c-0.1-15.9-0.2-31.7-0.3-47.6c7.7,0,15.4,0,23.2,0c0-8.4,0-15.7,0-22.9c-8,0-15.3,0-22.9,0
			c0,8.2,0,15.7,0,23.1c-8-0.1-15.9-0.2-23.9-0.3l0.3,0.3c0-15.6,0-31.3,0-48c8.5,0,15.9,0,22.9,0c0-7.5,0-14,0-21.5
			c-7.9,0-15.3,0-23.3,0c0-8.2,0-15.3,0-22.8c-8.1,0-15.4,0-23.8,0c0,23.1,0,45.5,0,68.7c-7.5,0-14,0-21.5,0c0,23.8,0,47,0,71.2
			c-8.4,0-15.8,0-23,0c0,8.2,0,15.3,0,23.5c7.8,0,15.2,0,23.6,0c0,8.4,0,15.8,0,23.8c15.4,0,29.7,0,45.1,0c0,16,0,31.2,0,47.5
			c8.4,0,15.8,0,22.9,0c0,8.2,0,15.3,0,22.5c-15.8,0-31,0-47.3,0c0-8,0-15.4,0-22.4c-7.5,0-14,0-21.5,0c0,7.9,0,15.3,0,23.3
			c-16.1,0-31.1,0-46.4,0c0,7.4,0,14.1,0,21.8c15.8,0,31,0,46.2,0c0,8.9,0,16.6,0,25.4c-23.6,0-46.7,0-69.7,0c0,7.8,0,14.4,0,21.1
			c30.8,0,60.9,0,92.1,0c0-7.8,0-15.2,0-23.6c8.4,0,15.8,0,23.8,0c0-8.2,0-15.3,0-23.5c15.9,0,31.2,0,47.4,0c0-8.4,0-15.8,0-23.1
			c4.3,0,7.5,0,11,0c2.3,8.3,4.4,16.4,7,25.7c-6.6,0-12.3,0-18,0c0,15.5,0,29.8,0,44.5c3.2,0.4,6.1,0.7,9.3,1.1
			c-1,5.3-2,10.4-3.3,16.9c14-3.5,26.9-6.7,40.3-10c0.5,5.7,0.9,10.7,1.3,16.4c7.9,0,15,0,22.3,0c0,8.7,0,16.7,0,25.8
			c-8,0-15.3,0-22.5,0c0,7.5,0,14,0,21.5c7.8,0,15.2,0,23.6,0c0,8.4,0,15.8,0,22.9c15.4,0,29.7,0,44.2,0c0-7.2,0-13.9,0-21.7
			c-7.3,0-14,0-20.5,0c0-16.7,0-32.4,0-48.1c7.9,0,15.2,0,23.6,0c0,15.9,0,31.2,0,47.1c8.2,0,15.3,0,22.4,0c0,8.8,0,16.7,0,25.5
			c-7.8,0-14.9,0-22.4,0c0,7.4,0,14.1,0,21.8c15.8,0,31.1,0,47,0c0,16.1,0,31.1,0,46.4c7.4,0,14.1,0,21.8,0c0-8,0-15.3,0-23.4
			c8.2,0,15.3,0,22.6,0c0-8.1,0-15.4,0-23.8c-8,0-15.3,0-23.4,0c0-7.5,0-14,0-21.5c-8,0-15.4,0-23.3,0c0-12.5,0-24,0-35.5
			c0-11.7,0-23.4,0-35.7c-8.7,0-15.8,0-24.4,0c0.9-7.4-0.6-16.2,3-20.1c5.7-6.1,14.9-8.8,22.7-13.1c0.5,2.7,0.9,5.2,1.3,7.1
			c15.2,0,29.8,0,44.1,0c0-7.3,0-13.7,0-21.2c-7.9,0-15.3,0-22.6,0c-1.5-21.5,2-25.4,22-25.4c16,0,31.9,0,47.7,0c0-8,0-14.7,0-22.3
			c-19.6,0-38.5,0-56.8,0c0-8.1,0-15.2,0-22.7c3.7-0.3,6.8-0.6,9.6-0.9c0-8.2,0-15.5,0-22.9c-19.2-1-21.1-3-23.3-20.6
			c-10.9-9.4-20.2-17.5-29.8-25.9c7.2-2.7,9.4-23.6,5.3-48.8c-7.1,0-14.5,0-22.9,0c0-8.4,0-15.8,0-22.9c-15.8,0-30.6,0-45.3,0
			c0-7.9,0-15.9,0-24.1c-8.5,0-15.9,0-23.4,0c0-7.7,0-15.5,0-24.2c16,0,30.6,0,45,0c0-7.5,0-14,0-21.4c-7.2,0-13.9,0-21.6,0
			c0-8.4,0-15.7,0-23c-8.2,0-15.3,0-23.4,0c0,7.8,0,15.2,0,22.5c-8.4,0-15.7,0-23.7,0c0-7.8,0-14.9,0-22.4c-8,0-15.4,0-23.7,0
			c0,7.9,0,15.3,0,23.6c-8.4,0-15.7,0-22.8,0c0,7.5,0,14,0,21.4c15.7,0,31,0,46.9,0c0,8.5,0,16,0,23.5c-7.7,0-15.4,0-23.2,0
			c0,8.4,0,15.7,0,22.9c8,0,15.3,0,22.9,0c0-8.2,0-15.7,0-23.1C348.9,222.3,356.8,222.3,364.8,222.3z M528.9,693.8
			c0-15.9,0-31.2,0-47.4c15.8,0,31,0,46,0c0-23.5,0-46,0-68.2c-7.2,0-13.7,0-21.1,0c0,15.1,0,29.7,0,45.3c-16.3,0-31.5,0-47.4,0
			c0,8.2,0,15.3,0,23.4c-8,0-15.4,0-22.6,0c0,16.3,0,31.5,0,47.4c7.8,0,14.9,0,23.1,0c0,15.9,0,31.2,0,46.3c7.7,0,14.4,0,21.8,0
			c0-7.8,0-14.9,0-23.1c8,0,15.4,0,22.7,0c0-8.4,0-15.7,0-23.8C543.4,693.8,536.3,693.8,528.9,693.8z M340.8,82.4
			c0-8.5,0-15.7,0-23.1c-8.1,0-15.4,0-23.8,0c0,7.9,0,15.3,0,23.3c-8.2,0-15.3,0-22.7,0c0,15.3,0,29.9,0,44.4c8,0,15.3,0,23.3,0
			c0-7.9,0-15,0-22.3c8.1,0,15.4,0,23.8,0c0,15.9,0,31.1,0,46.2c8.2,0,15.3,0,23.5,0c0-7.9,0-15.3,0-23.6c8.4,0,15.8,0,22.8,0
			c0-15.4,0-29.8,0-44.8C372.2,82.4,357.2,82.4,340.8,82.4z M457.7,104.8c8.9,0,16.9,0,25.6,0c0,7.9,0,15,0,22.2
			c7.4,0,14.1,0,20.6,0c0-15.2,0-29.8,0-45.1c-7.9,0-15,0-23.1,0c0-8,0-15.4,0-22.6c-7.7,0-14.4,0-21.8,0c0,7.8,0,15,0,23.1
			c-8,0-15.4,0-22.7,0c0,23.5,0,46,0,69.1c7.8,0,14.9,0,23,0c0,8,0,15.4,0,22.8c7.7,0,14.4,0,20.8,0c0-15.3,0-29.8,0-45.1
			c-7.9,0-15,0-22.5,0C457.7,120.9,457.7,113.1,457.7,104.8z M600,599.8c0,23.9,0,47,0,69.8c23.8,0,46.9,0,69.7,0
			c0-23.7,0-46.5,0-69.8C646.3,599.8,623.5,599.8,600,599.8z M575.2,460c-15.5,0-30,0-45.2,0c0,7.8,0,14.9,0,23.1
			c-8,0-15.4,0-23.7,0c0,8.4,0,15.7,0,24.1c-8.4,0-15.7,0-22.8,0c0,15.4,0,29.7,0,44.2c7.2,0,13.9,0,21.6,0c0-8,0-15.3,0-23.3
			c8.1,0,15.2,0,23.4,0c0-8,0-15.4,0-23.7c8.4,0,15.7,0,24.1,0c0-8.4,0-15.7,0-23.7c8.2,0,15.3,0,22.7,0
			C575.2,473.4,575.2,467,575.2,460z M506.8,293.8c-8.7,0-16.1,0-23.1,0c0,8.4,0,15.7,0,22.8c15.1,0,29.4,0,44.8,0
			c0-15.8,0-31,0-47.3c8.4,0,15.7,0,22.9,0c0-16.1,0-31,0-46.3c-7.2,0-13.8,0-21.6,0c0,7.9,0,15.3,0,23.3c-8.2,0-15.3,0-23,0
			C506.8,262.1,506.8,277,506.8,293.8z M481.2,201.4c-23.8,0-46.3,0-68.7,0c0,7.1,0,13.6,0,21.1c15.6,0,30.9,0,47.1,0
			c0,16.3,0,31.5,0,46.6c7.7,0,14.4,0,21.8,0c0-7.9,0-15,0-23.1c8,0,15.4,0,22.6,0c0-8.4,0-15.7,0-23.8c-7.8,0-14.9,0-22.7,0
			C481.2,215,481.2,208.6,481.2,201.4z M223.3,506.8c0,7.9,0,14.3,0,20.8c23.7,0,46.8,0,69.6,0c0-15.3,0-29.8,0-44.1
			c-15.8,0-30.8,0-46.8,0c0,7.9,0,15.3,0,23.3C238,506.8,230.9,506.8,223.3,506.8z M106.9,292.8c23.2,0,45.6,0,67.8,0
			c0-8,0-15.4,0-22.5c-23,0-45.1,0-67.8,0C106.9,277.9,106.9,285,106.9,292.8z M577.8,740.7c15.4,0,30,0,44.4,0
			c0-15.9,0-31.1,0-46.2c-7.9,0-15,0-23.1,0c0,7.8,0,15.2,0,23.6c-7.7,0-14.4,0-21.3,0C577.8,726.1,577.8,733,577.8,740.7z
			 M530.8,177.3c0,7.9,0,14.3,0,20.8c15.1,0,29.7,0,44,0c0-15.3,0-29.8,0-44.1c-7.3,0-13.7,0-21.2,0c0,7.9,0,15.3,0,23.3
			C545.4,177.3,538.3,177.3,530.8,177.3z M530.5,764.4c15.4,0,30,0,44.4,0c0-8,0-15.3,0-22.2c-15.3,0-29.8,0-44.4,0
			C530.5,749.9,530.5,756.7,530.5,764.4z M340.6,554.6c-15.9,0-31.1,0-46.1,0c0,7.3,0,14,0,20.6c15.7,0,30.7,0,46.1,0
			C340.6,568.3,340.6,561.8,340.6,554.6z M530.8,530.7c0,15,0,29.6,0,44.2c7.2,0,13.9,0,21.1,0c0-7.8,0-15,0-22.1
			c0-7.4,0-14.8,0-22.1C544.1,530.7,537.6,530.7,530.8,530.7z M741.7,412.3c0,7.6,0,14,0,20.7c7.8,0,15.1,0,22.5,0
			c0-7.3,0-13.9,0-20.7C756.4,412.3,749.3,412.3,741.7,412.3z M154.3,317.6c0,7.8,0,15.1,0,22.6c7.2,0,13.9,0,20.4,0
			c0-8,0-15.3,0-22.6C167.6,317.6,161.2,317.6,154.3,317.6z M83.4,294c0,7.8,0,15.1,0,22.6c7.2,0,13.9,0,20.4,0c0-8,0-15.3,0-22.6
			C96.6,294,90.2,294,83.4,294z M174.9,387.8c0-8.2,0-15.3,0-22.6c-7.2,0-13.8,0-20.5,0c0,7.9,0,15.3,0,22.6
			C161.6,387.8,168,387.8,174.9,387.8z M554.6,670.8c0,8.2,0,15.5,0,22.5c7.4,0,14,0,20.4,0c0-7.9,0-15,0-22.5
			C568.1,670.8,561.7,670.8,554.6,670.8z M178.2,341.2c0,8.4,0,15.7,0,22.8c7.2,0,13.7,0,20.3,0c0-7.9,0-15.2,0-22.8
			C191.5,341.2,185,341.2,178.2,341.2z M154.6,222.6c0,7.6,0,15.2,0,22.8c7,0,13.7,0,20.1,0c0-8,0-15.3,0-22.8
			C167.8,222.6,161.6,222.6,154.6,222.6z M389,130.1c0,7.5,0,14.1,0,20.5c7.4,0,14,0,20.5,0c0-7.2,0-13.7,0-20.5
			C402.6,130.1,396.2,130.1,389,130.1z M175.1,554.4c-7.5,0-13.9,0-20.7,0c0,7.1,0,13.8,0,20.6c7.2,0,13.9,0,20.7,0
			C175.1,567.9,175.1,561.5,175.1,554.4z M578.2,554.4c0,7.3,0,14,0,20.5c7.3,0,14,0,20.6,0c0-7.2,0-13.6,0-20.5
			C591.9,554.4,585.5,554.4,578.2,554.4z M412.4,174.6c7.6,0,14,0,20.6,0c0-7.2,0-13.9,0-20.4c-7.3,0-14,0-20.6,0
			C412.4,161.3,412.4,167.7,412.4,174.6z M527.7,174.6c0-7.1,0-13.8,0-20.6c-7.2,0-13.9,0-20.4,0c0,7.3,0,14,0,20.6
			C514.5,174.6,520.9,174.6,527.7,174.6z"/>
		<path class="st0" d="M340.9,693.9c7.5,0,15,0,23.6,0c0,8.1,0,15.5,0,23.5c8.1,0,15.3,0,23.4,0c0,8,0,15.4,0,23.8
			c24.1,0,47.3,0,71.1,0c0,8.1,0,15.3,0,23.4c8,0,15.4,0,23.3,0c0,8.4,0,15.7,0,23.6c-31,0-61.7,0-93.5,0c0-7.2,0-14.5,0-22.9
			c-8.4,0-15.7,0-23.8,0c0-8.2,0-15.3,0-23.1c-8,0-15.4,0-23.8,0c0,7.2,0,14.5,0,22.4c-16,0-31,0-47.1,0c0-15.1,0-30.3,0-46.6
			c-8.4,0-15.7,0-23.8,0c0-23.9,0-46.8,0-70.8c-8,0-15.4,0-23.9,0c0-16.7,0-32.3,0-48l-0.3,0.3c7.7,0,15.4,0,24.2,0
			c0,8.4,0,15.8,0,23.7c16.4,0,31.7,0,47.1,0l-0.3-0.3c0.1,8,0.2,16,0.3,23.9c-7.7,0-15.4,0-23.2,0c0,8.4,0,15.7,0,22.9
			c8,0,15.3,0,22.9,0c0-8.2,0-15.7,0-23.1c8,0.1,15.9,0.2,23.9,0.3l-0.3-0.3c0.1,15.9,0.2,31.7,0.3,47.6c-7.7,0-15.4,0-23.2,0
			c0,8.4,0,15.7,0,22.9c8,0,15.3,0,22.9,0C340.9,708.8,340.9,701.3,340.9,693.9z"/>
		<path class="st0" d="M12.5,11.8c55.1,0,109.5,0,164.4,0c0,54.9,0,109.3,0,164.5c-54.5,0-109.1,0-164.4,0
			C12.5,121.9,12.5,67.2,12.5,11.8z M35.9,150.7c39.1,0,77.3,0,115.4,0c0-38.7,0-76.7,0-115.1c-38.7,0-76.9,0-115.4,0
			C35.9,74.1,35.9,112.1,35.9,150.7z"/>
		<path class="st0" d="M12.4,623.4c54.9,0,109.3,0,164.4,0c0,54.8,0,109.4,0,164.7c-54.6,0-109.2,0-164.4,0
			C12.4,733.4,12.4,679,12.4,623.4z M35.9,764.6c39,0,77,0,115.4,0c0-39.4,0-78.2,0-117.3c-38.7,0-76.9,0-115.4,0
			C35.9,686.6,35.9,725.3,35.9,764.6z"/>
		<path class="st0" d="M623.3,176.4c0-55.1,0-109.6,0-164.5c54.8,0,109.2,0,164.3,0c0,54.5,0,109.2,0,164.5
			C733.3,176.4,678.7,176.4,623.3,176.4z M647.3,35.4c0,39,0,77.3,0,115.2c39.6,0,78.4,0,117,0c0-38.8,0-76.8,0-115.2
			C725.2,35.4,686.5,35.4,647.3,35.4z"/>
		<path class="st0" d="M623,317.3c0-15.4,0-30.8,0-46.8c7.8,0,15.1,0,23.2,0c0,7.3,0,14.4,0,22.6c23.8,0,46.9,0,71.2,0
			c0,8.8,0,16.5,0,24.3l0.3-0.3c-15.6,0-31.2,0-47.8,0c0,8.6,0,16,0,23.7c-8.5,0-16,0-23.5,0l0.3,0.3c0-7.8,0-15.5,0-24
			c-8.9,0-16.4,0-23.9,0L623,317.3z"/>
		<path class="st0" d="M12.4,365c23.3,0,46.1,0,69.7,0c0,15.3,0,30.5,0,46.3c-15.7,0-31.3,0-48,0c0-7,0-14.4,0-22.8
			c-7.7,0-14.4,0-21.7,0C12.4,380.4,12.4,373.2,12.4,365z"/>
		<path class="st0" d="M58.5,269.4c-8.5,0-16.2,0-24.6,0c0-7.5,0-14.6,0-22.7c-7.3,0-14,0-21.3,0c0-16.2,0-31.4,0-47.2
			c7.3,0,14.6,0,22.7,0c0,7.3,0,14.4,0,22.6c8,0,15.3,0,23.3,0C58.5,238.2,58.5,253.4,58.5,269.4z"/>
		<path class="st0" d="M717.4,317.3c7.5,0,15,0,23.6,0c0,7.8,0,15.2,0,23.2c8.1,0,15.3,0,23.1,0c0,8,0,15.4,0,23.9
			c-23.3,0-46.8,0-70.4,0l0.3,0.3c0-7.7,0-15.4,0-24.2c8.4,0,15.7,0,23.7,0c0-8.5,0-16,0-23.5L717.4,317.3z"/>
		<path class="st0" d="M764.7,622.9c0,7.5,0,15,0,23.4c7.9,0,15.3,0,23.2,0c0,16.2,0,31.3,0,47.6c-7.7,0-15.5,0-23.2,0l0.3,0.3
			c0-7.7,0-15.5,0-24.2c-8.7,0-16,0-23.9,0c0-16.4,0-31.7,0-47.1c8,0.1,16,0.2,23.9,0.3L764.7,622.9z"/>
		<path class="st0" d="M269.9,742c0,7.8,0,14.6,0,22.5c-7.4,0-14.7,0-23.1,0c0,8.3,0,15.7,0,23.6c-16.2,0-31.4,0-47.1,0
			c0-7.3,0-14.4,0-22.5c7.1,0,14.4,0,22.8,0c0-8.3,0-15.7,0-23.6C238.6,742,253.8,742,269.9,742z"/>
		<path class="st0" d="M765.4,246.6c0-15.6,0-31.2,0-47.3c7.4,0,14.5,0,22.3,0c0,15,0,30.1,0,47c-7.3,0-15,0-22.6,0
			C765,246.3,765.4,246.6,765.4,246.6z"/>
		<path class="st0" d="M741,246.2c8.1,0.1,16.2,0.2,24.4,0.3l-0.3-0.3c-0.1,15.8-0.3,31.5-0.4,47.3l0.3-0.3c-7.5,0-15,0-23.7,0
			c0-16.1,0-31.7,0-47.4C741.3,246,741,246.2,741,246.2z"/>
		<path class="st0" d="M222.7,599.2c0,15.3,0,30.7,0,46.8c-7.6,0-14.9,0-22.9,0c0-15,0-30.2,0-46.5c7.7,0,15.4,0,23.2,0
			C222.9,599.4,222.7,599.2,222.7,599.2z"/>
		<path class="st0" d="M388.2,622.9c0,7.5,0,15,0,23.7c-16.1,0-31.7,0-47.3,0l0.3,0.3c0-8,0-16,0-24l-0.3,0.3c15.9,0,31.7,0,47.6,0
			L388.2,622.9z"/>
		<path class="st0" d="M598.7,34.5c-15.3,0-30.3,0-46,0c0-7.3,0-14.6,0-22.6c15,0,30.2,0,46,0C598.7,19.4,598.7,26.7,598.7,34.5z"/>
		<path class="st0" d="M764.7,693.9c0,7.5,0,15,0,23.2c-15.6,0-30.7,0-47,0c0-7.7,0-15.4,0-23.2l-0.3,0.3c15.9,0,31.7,0,47.6,0
			L764.7,693.9z"/>
		<path class="st0" d="M693.7,741.5c7.5,0,15,0,23.1,0c0,15.6,0,30.7,0,46.6c-7.2,0-14.5,0-22.9,0c0-15.7,0-31.3,0-46.9
			C694,741.2,693.7,741.5,693.7,741.5z"/>
		<path class="st0" d="M81.3,553.4c0-8.3,0-16,0-24.4c8,0,16,0,24.6,0c0,8,0,15.9,0,24.4C97.9,553.4,90.2,553.4,81.3,553.4z"/>
		<path class="st0" d="M12.1,529.4c0-8.3,0-15.8,0-24.1c7.5,0,14.8,0,22.8,0c0,7.8,0,15.8,0,24.1C27.2,529.4,19.7,529.4,12.1,529.4z
			"/>
		<path class="st0" d="M12.2,316.4c0-7.6,0-14.7,0-22.4c7.7,0,15,0,22.8,0c0,7.4,0,14.5,0,22.4C27.8,316.4,20.5,316.4,12.2,316.4z"
			/>
		<path class="st0" d="M411.8,12.1c0,7.7,0,14.5,0,22.1c-7.5,0-14.8,0-22.8,0c0-7.1,0-14.4,0-22.1C396.6,12.1,404.2,12.1,411.8,12.1
			z"/>
		<path class="st0" d="M764.6,293.6c7.5,0,14.9,0,23.1,0c0,7.6,0,14.9,0,22.9c-7.2,0-14.5,0-22.8,0c0-7.8,0-15.5,0-23.2
			C764.9,293.3,764.6,293.6,764.6,293.6z"/>
		<path class="st0" d="M222.9,693.9c-7.5,0-14.9,0-23.1,0c0-7.6,0-14.9,0-22.9c7.2,0,14.5,0,22.8,0c0,7.7,0,15.4,0,23.1L222.9,693.9
			z"/>
		<path class="st0" d="M222.6,694.2c7.5,0,14.9,0,23.1,0c0,7.6,0,14.9,0,22.9c-7.2,0-14.5,0-22.8,0c0-7.8,0-15.5,0-23.2
			C222.9,693.9,222.6,694.2,222.6,694.2z"/>
		<path class="st0" d="M765.4,765.5c7.5,0,14.6,0,22.4,0c0,7.3,0,14.6,0,22.6c-7.2,0-14.5,0-22.4,0
			C765.4,780.9,765.4,773.8,765.4,765.5z"/>
		<path class="st0" d="M764.7,599.5c7.5,0,15,0,23.1,0c0,7.7,0,15,0,23.4c-7.7,0-15.4,0-23.1,0l0.3,0.3c0-8,0-16,0-24L764.7,599.5z"
			/>
		<path class="st0" d="M316.5,481.8c3.6-13,7-23.7,9.3-34.5c1-4.4,0.9-9.9-0.9-14c-15.6-35.3-7.1-74,22.2-98.2
			c28.4-23.6,69.1-25.1,99.9-3.8c29.2,20.3,42.3,59.3,30.9,92.6c-12.1,35.7-46.1,58.9-83.5,56.5c-6.5-0.4-13.7-0.8-19.2-3.8
			c-12.6-6.9-24.4-4.4-36.8-0.3C332.1,478.3,325.4,479.6,316.5,481.8z M335.1,462.2c0.8,0.4,1.7,0.7,2.5,1.1
			c4.7-1.3,9.4-3.3,14.1-3.6c5.8-0.3,12.4-0.6,17.5,1.7c29.2,13.6,64.8,5.6,84.2-19.7c20.3-26.5,19.6-62-1.6-87.2
			C431,329.8,395,322.9,367,338.2c-29.3,16.1-44.2,49.4-33.4,80.2C338.7,433.3,344.6,446.8,335.1,462.2z"/>
		<path class="st0" d="M270,293.3c0,7.5,0,15,0,23.2c-15.5,0-30.7,0-46.5,0c0-7.2,0-14.5,0-22.9c15.7,0,31.2,0,46.8,0
			C270.2,293.6,270,293.3,270,293.3z"/>
		<path class="st0" d="M388.2,269.9c7.5,0,15,0,23.2,0c0,11.4,0,22.3,0,33.9c-7.2,0-14.5,0-22.9,0c0-11.4,0-22.8,0-34.2
			C388.4,269.6,388.2,269.9,388.2,269.9z"/>
		<path class="st0" d="M246.3,245.9c0,7.5,0,15,0,23.1c-7.6,0-14.9,0-22.9,0c0-7.2,0-14.5,0-22.9c7.7,0,15.4,0,23.2,0
			C246.6,246.2,246.3,245.9,246.3,245.9z"/>
		<path class="st0" d="M294.4,364.8c5.6,0,10.8,0,16.3,0c-1.9,7.6-3.6,14.8-5.6,22.9c-3.1,0.1-6.5,0.3-10.7,0.5
			C294.4,380.5,294.4,373.2,294.4,364.8z"/>
		<ellipse class="st0" cx="729.4" cy="611.2" rx="16.9" ry="16.9"/>
		<path class="st0" d="M623.1,646.1c0-7.8,0-14.7,0-22.3c7.5,0,14.8,0,22.8,0c0,7.1,0,14.4,0,22.3
			C638.6,646.1,631.2,646.1,623.1,646.1z"/>
		<path class="st0" d="M129.6,57.4c0,24.4,0,47.9,0,71.9c-24,0-47.5,0-71.7,0c0-23.7,0-47.4,0-71.9C81.5,57.4,105.3,57.4,129.6,57.4
			z"/>
		<path class="st0" d="M57.6,740.9c0-23.5,0-46.4,0-69.9c24,0,47.7,0,72,0c0,23.2,0,46.3,0,69.9C105.7,740.9,82.2,740.9,57.6,740.9z
			"/>
		<path class="st0" d="M670.2,129.1c0-23.1,0-45.4,0-67.7c0-1.2,0.3-2.5,0.5-4.1c23.2,0,46.1,0,69.6,0c0,23.7,0,47.4,0,71.9
			C717.5,129.1,694.4,129.1,670.2,129.1z"/>
		<path class="st0" d="M421.9,438.8c-5.5-1.4-9.3-2.1-13-3.3c-21-7.1-35.6-21.7-46.5-40.3c-6.6-11.3-5.8-22.7,0.9-30.4
			c6.1-7,13.2-6.3,16.8,2.1c3.2,7.6,9,15.2,0.3,23.3c-1,0.9-0.3,5.3,1,6.7c5.4,6,11.1,11.9,17.3,17.1c6.1,5.1,12.4,6.8,17.8-2.1
			c2.6-4.2,16.6-1.8,21.1,4.9c2.1,3.1,0.9,11-1.7,14.3C432.6,435.2,426.2,436.7,421.9,438.8z"/>
	</g>
</g>
<image style="overflow:visible;" width="945" height="1680" xlink:href="C:\Users\Windows 10\Desktop\Código QR de WhatsApp de RAHIP Estudio Creativo (+54 9 263 471-7503).jpg"  transform="matrix(0.75 0 0 0.75 924 116.8)">
</image>
<g id="XMLID_2332_">
	<g id="XMLID_2334_">
		<path class="st1" d="M1308.6,750.8c-0.4-16.4-13.9-29.5-30.5-29.5c-16.4,0-29.8,12.9-30.5,29c0,0.4,0,0.9,0,1.3
			c0,5.7,1.6,11.1,4.4,15.7l-5.5,16.3l16.9-5.4c4.4,2.4,9.4,3.8,14.8,3.8c16.9,0,30.5-13.6,30.5-30.3
			C1308.6,751.3,1308.6,751.1,1308.6,750.8z M1278.1,777c-5.2,0-10.1-1.5-14.1-4.2l-9.9,3.1l3.2-9.5c-3.1-4.2-4.9-9.4-4.9-14.9
			c0-0.8,0-1.7,0.1-2.5c1.3-12.9,12.2-23,25.6-23c13.5,0,24.6,10.4,25.6,23.5c0.1,0.7,0.1,1.3,0.1,2
			C1303.7,765.6,1292.2,777,1278.1,777z"/>
	</g>
	<g id="XMLID_2333_">
		<path class="st1" d="M1292.1,757.7c-0.8-0.4-4.4-2.2-5.1-2.4c-0.7-0.3-1.2-0.4-1.7,0.4c-0.5,0.7-1.9,2.4-2.4,2.9
			c-0.4,0.5-0.9,0.6-1.6,0.2c-0.7-0.4-3.2-1.1-6-3.7c-2.2-2-3.7-4.4-4.2-5.1c-0.4-0.7,0-1.1,0.3-1.5c0.3-0.3,0.7-0.9,1.1-1.3
			c0.1-0.1,0.2-0.2,0.3-0.4c0.2-0.3,0.3-0.5,0.5-0.9c0.3-0.5,0.1-0.9-0.1-1.3c-0.2-0.4-1.7-4-2.3-5.5c-0.6-1.5-1.2-1.2-1.7-1.2
			c-0.4,0-0.9-0.1-1.4-0.1c-0.5,0-1.3,0.2-2,0.9c-0.7,0.7-2.6,2.5-2.6,6.2c0,0.9,0.2,1.7,0.4,2.5c0.8,2.6,2.4,4.8,2.7,5.1
			c0.4,0.5,5.2,8.2,12.8,11.2c7.6,3,7.6,2,9,1.8c1.4-0.1,4.4-1.8,5-3.5c0.6-1.7,0.6-3.2,0.4-3.5
			C1293.3,758.2,1292.8,758.1,1292.1,757.7z"/>
	</g>
</g>
<path class="st1" d="M1130.3,604.3v62.8h62.8v-62.8H1130.3z M1183.8,657.8h-44.2v-44.2h44.2V657.8z"/>
<rect x="1147.7" y="621.6" class="st1" width="28.2" height="28.2"/>
<path class="st1" d="M1130.3,836.7v62.8h62.8v-62.8H1130.3z M1183.8,890.2h-44.2v-44.2h44.2V890.2z"/>
<rect x="1147.7" y="854.1" class="st1" width="28.2" height="28.2"/>
<path class="st1" d="M1362.8,604.3v62.8h62.8v-62.8H1362.8z M1416.3,657.8h-44.2v-44.2h44.2V657.8z"/>
<rect x="1380.1" y="621.6" class="st1" width="28.2" height="28.2"/>
</svg>
