<?xml version="1.0" encoding="utf-8"?>
<!-- Generator: Adobe Illustrator 25.2.3, SVG Export Plug-In . SVG Version: 6.00 Build 0)  -->
<svg version="1.1" id="Capa_1" xmlns="http://www.w3.org/2000/svg" xmlns:xlink="http://www.w3.org/1999/xlink" x="0px" y="0px"
	 viewBox="0 0 878.4 327.7" style="enable-background:new 0 0 878.4 327.7;" xml:space="preserve">
<style type="text/css">
	.st0{fill:#EDEDED;}
</style>
<g>
	<g>
		<g>
			<g>
				<polygon class="st0" points="556.7,68.5 652.9,68.5 628.8,260.8 580.7,260.8 				"/>
			</g>
		</g>
		<path class="st0" d="M78.6,75.6c11.1-4.7,23.9-7,38.3-7V119c-6.1-0.5-10.2-0.7-12.2-0.7c-15.6,0-27.9,4.4-36.8,13.1
			s-13.3,21.9-13.3,39.4v88.9H0V71.4h52.2v24.9C58.7,87.2,67.5,80.3,78.6,75.6z"/>
		<path class="st0" d="M291.6,89.4c15.6,13.9,23.5,34.8,23.5,62.8v107.5H264v-23.5c-10.3,17.5-29.4,26.3-57.4,26.3
			c-14.5,0-27-2.5-37.6-7.4s-18.7-11.7-24.3-20.3c-5.6-8.6-8.4-18.4-8.4-29.4c0-17.5,6.6-31.3,19.8-41.3
			c13.2-10,33.6-15.1,61.1-15.1h43.4c0-11.9-3.6-21.1-10.9-27.5c-7.2-6.4-18.1-9.6-32.6-9.6c-10,0-19.9,1.6-29.6,4.7
			c-9.7,3.2-17.9,7.4-24.7,12.8l-19.6-38.2c10.3-7.2,22.6-12.8,36.9-16.8c14.4-4,29.1-5.9,44.3-5.9C253.6,68.6,276,75.6,291.6,89.4z
			 M245.1,219.3c7.2-4.3,12.4-10.7,15.4-19.1V181H223c-22.4,0-33.6,7.4-33.6,22.1c0,7,2.7,12.6,8.2,16.6c5.5,4.1,13,6.1,22.6,6.1
			C229.5,225.8,237.8,223.6,245.1,219.3z"/>
		<path class="st0" d="M516.2,89.6c14.3,14,21.5,34.8,21.5,62.3v107.8h-54.6v-99.4c0-14.9-3.3-26.1-9.8-33.4c-6.5-7.3-16-11-28.4-11
			c-13.8,0-24.7,4.3-32.9,12.8c-8.2,8.5-12.2,21.2-12.2,38v93.1h-54.6V0h54.6v91c7.2-7.2,16-12.8,26.2-16.6s21.5-5.8,33.6-5.8
			C483,68.6,501.9,75.6,516.2,89.6z"/>
		<path class="st0" d="M832.4,80.7c14.3,8.1,25.6,19.4,33.8,34c8.2,14.6,12.2,31.6,12.2,50.9s-4.1,36.4-12.2,50.9
			c-8.2,14.6-19.4,25.9-33.8,34c-14.3,8-30.3,12.1-47.8,12.1c-24,0-43-7.6-56.7-22.8v87.9h-54.6V71.4h52.2v21.7
			c13.5-16.3,33.3-24.5,59.2-24.5C802.1,68.6,818,72.6,832.4,80.7z M809.6,203.6c9-9.4,13.5-22.1,13.5-38s-4.5-28.5-13.5-38
			c-9-9.5-20.5-14.2-34.5-14.2c-14,0-25.5,4.7-34.5,14.2c-9,9.4-13.5,22.1-13.5,38s4.5,28.5,13.5,38c9,9.5,20.5,14.2,34.5,14.2
			C789.1,217.8,800.6,213,809.6,203.6z"/>
	</g>
</g>
</svg>
