<?xml version="1.0" encoding="utf-8"?>
<!-- Generator: Adobe Illustrator 25.2.3, SVG Export Plug-In . SVG Version: 6.00 Build 0)  -->
<svg version="1.1" id="Capa_1" xmlns="http://www.w3.org/2000/svg" xmlns:xlink="http://www.w3.org/1999/xlink" x="0px" y="0px"
	 viewBox="0 0 65.8 65.8" style="enable-background:new 0 0 65.8 65.8;" xml:space="preserve">
<style type="text/css">
	.st0{fill-rule:evenodd;clip-rule:evenodd;fill:#EDEDED;}
</style>
<g id="XMLID_2332_">
	<g id="XMLID_2334_">
		<path class="st0" d="M65.8,31.2C65.3,13.9,51.1,0,33.5,0C16.1,0,2,13.6,1.2,30.6c0,0.5,0,0.9,0,1.4c0,6.1,1.7,11.7,4.6,16.6
			L0,65.8l17.9-5.7c4.6,2.5,9.9,4,15.6,4c17.8,0,32.3-14.3,32.3-32.1C65.8,31.8,65.8,31.5,65.8,31.2z M33.5,59
			c-5.5,0-10.6-1.6-14.9-4.5L8.1,57.9l3.4-10c-3.3-4.4-5.2-9.9-5.2-15.8c0-0.9,0-1.8,0.1-2.6c1.3-13.6,12.9-24.3,27-24.3
			c14.3,0,26,11,27.1,24.8c0.1,0.7,0.1,1.4,0.1,2.1C60.7,46.9,48.5,59,33.5,59z"/>
	</g>
	<g id="XMLID_2333_">
		<path class="st0" d="M48.3,38.5c-0.8-0.4-4.7-2.3-5.4-2.6c-0.7-0.3-1.3-0.4-1.8,0.4c-0.5,0.8-2.1,2.6-2.5,3.1
			c-0.5,0.5-0.9,0.6-1.7,0.2c-0.8-0.4-3.3-1.2-6.4-3.9c-2.3-2.1-3.9-4.6-4.4-5.4c-0.5-0.8,0-1.2,0.3-1.6c0.4-0.4,0.8-0.9,1.2-1.4
			c0.1-0.1,0.2-0.3,0.3-0.4c0.2-0.3,0.3-0.6,0.5-0.9c0.3-0.5,0.1-1-0.1-1.4c-0.2-0.4-1.8-4.3-2.4-5.8c-0.6-1.6-1.3-1.3-1.8-1.3
			c-0.5,0-1-0.1-1.5-0.1c-0.5,0-1.4,0.2-2.1,1c-0.7,0.8-2.8,2.7-2.8,6.6c0,0.9,0.2,1.8,0.4,2.7c0.8,2.8,2.5,5,2.8,5.4
			c0.4,0.5,5.5,8.7,13.5,11.9c8.1,3.1,8.1,2.1,9.5,2c1.5-0.1,4.7-1.9,5.3-3.7c0.7-1.8,0.7-3.4,0.5-3.7
			C49.6,39.1,49.1,38.9,48.3,38.5z"/>
	</g>
</g>
</svg>
